<svg xmlns="http://www.w3.org/2000/svg" viewBox="0 0 18.73 23.65"><defs><style>.cls-1{fill:#fff;}</style></defs><title>copy</title><g id="Capa_2" data-name="Capa 2"><g id="Contenido"><path class="cls-1" d="M12.61,0h-6A1.34,1.34,0,0,0,5.31,1.33V17.26a1.33,1.33,0,0,0,1.34,1.33H17.4a1.33,1.33,0,0,0,1.33-1.33V6.12H13.94a1.34,1.34,0,0,1-1.33-1.33Z"/><path class="cls-1" d="M14.91,0l3.82,3.82H15.38a.47.47,0,0,1-.47-.47Z"/><path class="cls-1" d="M6.33,20.85a3.27,3.27,0,0,1-3.27-3.28V5.05H1.9A1.91,1.91,0,0,0,0,7V20.8a2.86,2.86,0,0,0,2.85,2.85h8.66a1.91,1.91,0,0,0,1.91-1.91v-.89Z"/></g></g></svg>